<?xml version="1.0" encoding="utf-8"?>
<!-- Generator: Adobe Illustrator 21.1.0, SVG Export Plug-In . SVG Version: 6.00 Build 0)  -->
<svg version="1.1" id="Layer_1" xmlns="http://www.w3.org/2000/svg" xmlns:xlink="http://www.w3.org/1999/xlink" x="0px" y="0px"
	 viewBox="0 0 689.8 207.7" style="enable-background:new 0 0 689.8 207.7;" xml:space="preserve">
<style type="text/css">
	.st0{fill:#3F3F3F;}
	.st1{fill:#AAAAAA;}
</style>
<title>hangman</title>
<g id="Layer_4">
	<polygon class="st0" points="378.8,42.4 362,41.1 362,0 378.8,0 	"/>
	<path class="st0" d="M384.4,64.8h-0.7l-27.9-2.3c-4.6-0.4-8-4.4-7.7-9s4.4-8,9-7.7l27.9,2.2c4.6,0.4,8,4.4,7.6,9.1
		C392.4,61.5,388.7,64.8,384.4,64.8L384.4,64.8z"/>
	<path class="st0" d="M384.4,85.5c-0.2,0-0.4,0-0.7,0l-27.9-2.2c-4.6-0.4-8-4.4-7.7-9s4.4-8,9-7.7l0,0l27.9,2.2
		c4.6,0.3,8.1,4.3,7.8,8.9C392.6,82.2,388.9,85.6,384.4,85.5L384.4,85.5z"/>
	<path class="st0" d="M384.4,106.7c-0.2,0-0.5,0-0.7,0l-27.9-2.2c-4.6-0.3-8.2-4.2-7.9-8.8c0.3-4.6,4.2-8.2,8.8-7.9
		c0.1,0,0.3,0,0.4,0l27.9,2.3c4.6,0.3,8.1,4.3,7.8,8.9C392.6,103.4,388.8,106.8,384.4,106.7L384.4,106.7z"/>
	<path class="st0" d="M389,111.8h-0.8l-33.9-2.8c-12.3,13.4-30.2,35.7-30.2,52.4c-0.4,25.5,20,46.5,45.6,46.9s46.5-20,46.9-45.6
		c0-0.5,0-0.9,0-1.4C416.7,145.8,401.1,125.4,389,111.8z M370.4,192.8c-17.3,0-31.4-14.1-31.4-31.4c0-11.8,17.6-33.7,31.4-47.9
		c13.8,14.2,31.4,36.2,31.4,47.9C401.8,178.7,387.7,192.8,370.4,192.8L370.4,192.8z"/>
	<path class="st1" d="M69.6,36.2c-2.7-3.7-6.3-6.6-10.6-8.4l0,0c-4.4-1.8-9.2-2.7-13.9-2.7c-4.5,0-9,1-13.1,2.9
		c-2.8,1.3-5.3,3.2-7.4,5.5V0H0v109.7h24.5V65.2c0-6.2,1.3-11.1,3.8-14.3s5.9-4.7,10.7-4.7c4.4,0,7.3,1.4,8.8,4.4
		c1.4,2.9,2,6.1,1.9,9.3v49.8h24.9V61.6c0.1-5.2-0.1-10.3-0.7-15.5C73.2,42.5,71.8,39.1,69.6,36.2z"/>
	<path class="st1" d="M158.9,101.2c-0.2-0.2-0.7-1.2-0.9-4.4c-0.1-3.5-0.1-6.5-0.1-9v-36c0-10.2-3.8-17.3-11.1-21.1
		c-7.4-3.6-15.6-5.5-23.9-5.3c-13.8,0-23.8,3.7-29.6,11.1c-3.7,4.7-5.7,10.8-6.2,18L87,56.7h23.6l0.3-1.7c0.3-2.3,1.1-4.4,2.5-6.2
		c1.6-1.9,4.6-2.9,8.9-2.9c4,0,7,0.5,9,1.6c1,0.5,2.3,1.7,2.3,4.9c0,1.2-0.4,2.8-3.2,4c-2.5,0.9-5,1.4-7.6,1.6l-7,0.9
		c-8.2,1-14.6,2.8-18.9,5.3c-8.1,4.7-12.2,12.3-12.2,22.7c0,8,2.6,14.3,7.7,18.7s11.4,6.6,19,6.6c5.6,0.1,11.2-1.3,16.1-4.1
		c2.6-1.5,5.1-3.3,7.3-5.3c0,0.3,0.1,0.5,0.1,0.8c0.3,1.7,0.8,3.3,1.4,4.9l0.5,1.3h25.7v-6.3l-1.2-0.5
		C160.3,102.5,159.5,101.9,158.9,101.2z M133.5,77.2c-0.1,6.2-1.8,10.4-5,12.6c-3.3,2.3-7.2,3.5-11.2,3.5c-2.2,0.1-4.3-0.6-6-1.9
		c-1.5-1.2-2.2-3.1-2.2-6c-0.2-2.9,1.3-5.6,3.8-7c1.7-1,4.7-1.8,8.8-2.6l4.7-0.9c2-0.3,3.9-0.8,5.9-1.5c0.4-0.2,0.9-0.3,1.3-0.5
		L133.5,77.2z"/>
	<path class="st1" d="M238.4,32.2c-5.5-4.5-12.6-6.8-21.1-6.8c-6.9,0-12.6,1.7-17.2,5.2c-1.6,1.2-3,2.6-4.2,4.2v-7.3H172v82.3h24.5
		V65.2c-0.1-3.8,0.5-7.6,1.8-11.2c2.2-5.2,6.3-7.7,12.4-7.7c4.8,0,8,1.6,9.6,4.9c1,1.9,1.4,4.8,1.4,8.6v49.7h25V54.9
		C246.8,44.5,244,36.8,238.4,32.2z"/>
	<path class="st1" d="M312.7,34.2c-2.5-3-5.7-5.3-9.3-6.8l0,0c-3.5-1.4-7.2-2-11-2c-11.3,0-20.1,4.3-26.3,12.7
		c-6,8.2-9.1,18.5-9.1,30.6c0,12.5,3.2,22.6,9.5,30s15,11.3,25.7,11.3c6.9,0,12.7-1.7,17.1-5.1c1.1-0.9,2.2-1.8,3.1-2.9
		c-0.1,6.5-0.8,11.2-2.2,13.9c-2.1,4.2-6.4,6.3-13,6.3c-4.7,0-8-0.8-9.9-2.4c-1.1-1.1-1.9-2.5-2.1-4.1l-0.4-1.5h-26.1l0.2,2.2
		c0.7,8.4,4.6,14.9,11.4,19.2c6.6,4.1,15.2,6.2,25.6,6.2c17.2,0,29.1-4.8,35.3-14.1c3.6-5.4,5.4-13.5,5.4-24V27.3h-24V34.2z
		 M312.6,68.2c0,7.4-1.5,12.7-4.4,16c-2.7,3.1-6.6,4.8-10.6,4.8c-6.3,0-10.6-2.8-13.1-8.7c-1.5-3.6-2.2-7.5-2.1-11.4
		c-0.1-4.3,0.6-8.5,2-12.6c2.4-6,6.6-8.9,13-8.9c4.3-0.2,8.4,1.7,11,5.1C311.2,55.9,312.6,61.2,312.6,68.2L312.6,68.2z"/>
	<path class="st1" d="M512.4,35.3c-2.6-3.4-6-6-10-7.6l0,0c-3.5-1.4-7.2-2.2-11-2.2c-5.2-0.1-10.4,1.1-15,3.5
		c-3.5,1.9-6.5,4.6-8.8,7.8c-1.5-2.6-3.4-4.9-5.8-6.8l-0.1-0.1c-4-2.9-9.3-4.3-15.7-4.3c-6.8,0-12.4,1.7-16.7,5
		c-1.5,1.2-2.8,2.5-4,4v-7.2h-23.9v82.3h24.8V60.5c0-3.9,0.5-6.9,1.4-8.7c1.6-3.1,4.9-4.6,10-4.6c4.3,0,6.9,1.4,8.3,4.5
		c0.6,1.3,1.3,3.9,1.3,9.3v48.7H472V61c-0.1-2.8,0.4-5.6,1.5-8.2c1.8-4,5.1-5.9,9.9-5.9c4.1,0,6.8,1.4,8.3,4.4
		c0.9,2,1.3,4.2,1.2,6.5v51.9h25l0.2-51.4c0.1-4-0.2-8-0.8-12C516.6,42.3,514.9,38.5,512.4,35.3z"/>
	<path class="st1" d="M602,101.2c-0.2-0.2-0.7-1.2-0.9-4.4c-0.1-3.5-0.1-6.5-0.1-9v-36c0-10.2-3.8-17.3-11.1-21.1
		c-7.4-3.6-15.6-5.5-23.9-5.3c-13.8,0-23.8,3.7-29.6,11.1c-3.7,4.7-5.7,10.8-6.2,18l-0.1,2.1h23.6l0.3-1.7c0.3-2.3,1.1-4.4,2.5-6.2
		c1.6-1.9,4.6-2.9,8.9-2.9c4,0,7,0.5,9,1.6c1,0.5,2.3,1.6,2.3,4.9c0,1.2-0.4,2.8-3.2,4c-2.5,0.9-5,1.4-7.6,1.6l-7,0.9
		c-8.2,1-14.5,2.8-18.9,5.3c-8.1,4.7-12.2,12.3-12.2,22.7c0,8,2.6,14.3,7.7,18.7s11.4,6.6,19,6.6c5.6,0.1,11.2-1.3,16.1-4.1
		c2.6-1.5,5.1-3.3,7.3-5.3c0,0.3,0.1,0.5,0.1,0.8c0.3,1.7,0.8,3.3,1.4,4.9l0.5,1.3h25.7v-6.3l-1.2-0.5
		C603.4,102.5,602.6,101.9,602,101.2z M576.5,72.9v4.3c-0.1,6.2-1.8,10.4-5,12.6c-3.3,2.3-7.2,3.5-11.2,3.5c-2.2,0.1-4.3-0.6-6-1.9
		c-1.5-1.2-2.2-3.1-2.2-6c-0.2-2.9,1.3-5.6,3.8-7c1.7-1,4.7-1.8,8.8-2.6l4.7-0.9c2-0.3,3.9-0.8,5.8-1.5
		C575.7,73.3,576.1,73.1,576.5,72.9z"/>
	<path class="st1" d="M681.4,32.2c-5.5-4.5-12.6-6.8-21.1-6.8c-6.9,0-12.7,1.7-17.2,5.2c-1.6,1.2-3,2.6-4.2,4.2v-7.3H615v82.3h24.5
		V65.2c-0.1-3.8,0.5-7.6,1.8-11.2c2.2-5.2,6.3-7.7,12.4-7.7c4.8,0,8,1.6,9.6,4.9c1,1.9,1.4,4.8,1.4,8.6v49.7h25V54.9
		C689.8,44.5,687,36.8,681.4,32.2z"/>
</g>
</svg>
